<svg width="20" height="20" viewBox="0 0 20 20" fill="none" xmlns="http://www.w3.org/2000/svg">
<path fill-rule="evenodd" clip-rule="evenodd" d="M16.358 6.25398C16.146 4.13985 14.3175 3.43782 12.0117 3.24472L12.0003 0.310974L10.2141 0.318139L10.2252 3.17456C9.75624 3.17631 9.2764 3.18742 8.79969 3.19876L8.78891 0.323428L7.00412 0.33023L7.01473 3.26314C6.62813 3.27252 6.24848 3.28116 5.87826 3.28283L5.87799 3.27373L3.41501 3.28235L3.4228 5.18958C3.4228 5.18958 4.74141 5.15938 4.71958 5.18375C5.44291 5.18119 5.68041 5.60008 5.7498 5.9623L5.7628 9.30445C5.81271 9.30453 5.87783 9.30636 5.9516 9.31618L5.76343 9.31702L5.78049 13.9992C5.74962 14.2269 5.6172 14.5904 5.11185 14.5932C5.13477 14.6134 3.81374 14.5979 3.81374 14.5979L3.46724 16.7323L5.79162 16.7232C6.05401 16.7225 6.31385 16.7243 6.57084 16.7261H6.57113C6.73761 16.7273 6.90289 16.7285 7.06689 16.7289L7.07916 19.6965L8.86299 19.69L8.85214 16.7541C9.34149 16.7625 9.8155 16.7645 10.2782 16.7623L10.2887 19.6846L12.0744 19.6775L12.0636 16.7157C15.0652 16.5319 17.164 15.7673 17.4133 12.9478C17.6152 10.6768 16.5439 9.66787 14.838 9.26469C15.8711 8.73256 16.5148 7.80116 16.3575 6.2541L16.358 6.25398ZM13.9359 13.0366C13.9442 15.0718 10.7463 15.0392 9.28439 15.0243C9.15348 15.023 9.03649 15.0218 8.93697 15.0222L8.92233 11.0909C9.04399 11.0905 9.19174 11.0864 9.35912 11.0818C10.8572 11.0407 13.9272 10.9564 13.9363 13.0364L13.9359 13.0366ZM9.14415 9.24108C10.3647 9.25636 13.0251 9.28969 13.0185 7.4406C13.0114 5.549 10.4524 5.62682 9.2026 5.66483C9.06209 5.6691 8.93814 5.67287 8.83621 5.67328L8.8498 9.23878C8.93393 9.23844 9.03307 9.23968 9.14415 9.24108Z" fill="#00474B"/>
</svg>
