<svg width="17" height="23" viewBox="0 0 17 23" fill="none" xmlns="http://www.w3.org/2000/svg">
<path fill-rule="evenodd" clip-rule="evenodd" d="M16.9557 9.30088C17.3079 6.94314 15.5127 5.67567 13.0581 4.83014L13.8543 1.63627L11.9097 1.15177L11.1344 4.26147C10.6239 4.13411 10.099 4.01395 9.57739 3.8949L10.3581 0.764718L8.41513 0.280212L7.61832 3.47297C7.19528 3.37662 6.77999 3.28138 6.37688 3.18116L6.3791 3.17119L3.69798 2.50174L3.1808 4.57819C3.1808 4.57819 4.62325 4.90876 4.59279 4.92925C5.38018 5.12582 5.52304 5.64687 5.49868 6.05995L4.59168 9.69845C4.64595 9.71229 4.71627 9.73223 4.79379 9.76324L4.58892 9.71229L3.31702 14.8093C3.22067 15.0485 2.97648 15.4073 2.42608 15.2711C2.44546 15.2993 1.01299 14.9184 1.01299 14.9184L0.0478516 17.1443L2.57836 17.775C2.86394 17.8466 3.14607 17.9202 3.42509 17.993L3.42535 17.9931C3.60608 18.0402 3.78552 18.087 3.96376 18.1327L3.15921 21.3637L5.10111 21.8482L5.89847 18.6521C6.42838 18.7961 6.94334 18.929 7.44722 19.0541L6.65319 22.2352L8.5973 22.7198L9.40186 19.4954C12.717 20.1228 15.2104 19.8697 16.2586 16.8719C17.1041 14.4577 16.2171 13.0651 14.4728 12.1564C15.7431 11.8624 16.6999 11.0268 16.9552 9.30088H16.9557ZM12.5163 15.53C11.9644 17.7458 8.49533 16.829 6.90951 16.4099L6.90926 16.4098C6.76735 16.3723 6.64052 16.3388 6.53223 16.3119L7.5998 12.0322C7.73223 12.0652 7.89403 12.1015 8.07731 12.1427L8.07736 12.1427C9.71797 12.5108 13.0802 13.2653 12.5168 15.53H12.5163ZM8.40446 10.1564C9.72768 10.5094 12.612 11.2789 13.1144 9.26599C13.6281 7.20675 10.8234 6.58609 9.45368 6.28297C9.29969 6.24889 9.16384 6.21883 9.05287 6.19118L8.08497 10.0728C8.17656 10.0956 8.28404 10.1243 8.40446 10.1564Z" fill="#001E20"/>
</svg>
