<svg width="15" height="20" viewBox="0 0 15 20" fill="none" xmlns="http://www.w3.org/2000/svg">
<path d="M0.71875 7.28575L7.13304 0.871465C7.18104 0.821337 7.2387 0.781445 7.30253 0.754193C7.36637 0.72694 7.43506 0.712891 7.50446 0.712891C7.57387 0.712891 7.64256 0.72694 7.70639 0.754193C7.77023 0.781445 7.82789 0.821337 7.87589 0.871465L14.2902 7.28575" stroke="#001E20" stroke-width="1.43017" stroke-linecap="round" stroke-linejoin="round"/>
<path d="M0.71875 12.7129L7.13304 19.1272C7.18104 19.1773 7.2387 19.2172 7.30253 19.2445C7.36637 19.2717 7.43506 19.2858 7.50446 19.2858C7.57387 19.2858 7.64256 19.2717 7.70639 19.2445C7.77023 19.2172 7.82789 19.1773 7.87589 19.1272L14.2902 12.7129" stroke="#001E20" stroke-width="1.43017" stroke-linecap="round" stroke-linejoin="round"/>
</svg>
